<?xml version="1.0" encoding="UTF-8"?>
<svg id="Layer_2" data-name="Layer 2" xmlns="http://www.w3.org/2000/svg" viewBox="0 0 507.04 58.86">
  <g id="Layer_1-2" data-name="Layer 1">
    <g>
      <path d="m160.96,18.41v39.48h-11.17c-.4-1.5-.51-54.49-.12-57.62.31-.04.64-.13.98-.14,4.06-.03,8.12-.01,12.18-.09,1.04-.02,1.53.38,1.91,1.31,2.76,6.6,5.55,13.18,8.35,19.76,1.83,4.29,3.69,8.57,5.55,12.85.26.6.62,1.14,1.05,1.92.34-.54.6-.89.79-1.27,4.74-9.48,9.48-18.97,14.21-28.46.84-1.68,1.66-3.36,2.48-5.06.23-.47.41-.91,1.06-.91,3.29.01,6.57,0,10.06,0-.44,1.08-.8,2.11-1.26,3.1-4.07,8.68-8.16,17.35-12.26,26.01-3.12,6.6-6.24,13.21-9.38,19.8-.35.73-.74,1.45-1.19,2.12-.62.91-1.43,1.26-2.62,1.06-1.23-.21-2.53-.22-3.78-.12-1.75.14-2.32-.04-3.01-1.6-.84-1.9-1.59-3.84-2.38-5.77-3.24-7.94-6.47-15.88-9.72-23.81-.38-.92-.86-1.8-1.3-2.7-.15.04-.3.08-.45.12Z"/>
      <path d="m458.68,18.56c-.12,13.08-.24,26.16-.37,39.35h-11.25c-.14-19.24-.22-38.4-.03-57.72h14.66c1.64,3.88,3.31,7.85,5,11.81,1.69,3.97,3.36,7.94,5.12,11.88,1.75,3.91,3.24,7.94,5.26,12.04.41-.63.69-.98.89-1.36,3.87-7.65,7.75-15.29,11.6-22.95,1.73-3.44,3.42-6.91,5.12-10.37.33-.68.69-1.14,1.58-1.13,3.04.04,6.09,0,9.14-.02.14,0,.27.06.51.12-.12.36-.21.69-.35,1-3.38,7.21-6.78,14.41-10.17,21.62-2.81,5.97-5.6,11.94-8.41,17.9-1.38,2.93-2.78,5.86-4.21,8.77-.31.63-.72,1.22-1.17,1.76-.66.79-1.49,1.08-2.57.97-1.4-.14-2.83-.13-4.24-.04-1.11.07-1.87-.29-2.37-1.26-.16-.32-.3-.64-.44-.97-3.85-9.44-7.71-18.88-11.56-28.32-.27-.66-.45-1.35-.71-2.01-.17-.43-.43-.82-.64-1.23-.13.05-.25.1-.38.16Z"/>
      <path d="m386.4.19h12.8c.04.78.11,1.52.11,2.26,0,8.99-.04,17.97-.03,26.96,0,2.23.05,4.47.23,6.69.34,4.17,2.4,7.38,5.82,9.7.82.56,1.82.92,2.79,1.14,2.68.61,5.36.35,7.97-.42.85-.25,1.7-.73,2.38-1.31,2.87-2.44,4.61-5.5,4.76-9.34.09-2.33.1-4.67.12-7,.05-8.73.09-17.47.14-26.2,0-.8,0-1.6,0-2.5h12.89c.03.55.08,1.04.08,1.53-.02,10.46-.04,20.92-.08,31.38-.01,3.26-.24,6.51-1.23,9.63-2,6.31-5.75,11.09-12.03,13.69-8.31,3.45-16.52,3.22-24.63-.57-5.72-2.67-8.97-7.42-10.82-13.27-.8-2.54-1.16-5.16-1.19-7.8-.1-10.86-.13-21.73-.17-32.59,0-.6.06-1.2.1-1.99Z"/>
      <path d="m221.79.14h41.94c.36,1.11.28,8.83-.13,10.57-9.59.05-19.21.1-28.95.15-.09.78-.23,1.37-.23,1.96-.02,10.82-.03,21.63-.01,32.45,0,2.58.06,2.6,2.63,2.59,8.89-.03,17.77-.06,26.66-.09.35,0,.69,0,1.11,0v10.63h-43.02c-.37-1.09-.4-56.22,0-58.25Z"/>
      <path d="m139.86,47.79v10.6h-43.16V.15h42.28v10.55c-9.9.05-19.62.09-29.45.14v36.89c.6.05,1.13.13,1.67.13,8.93-.01,17.87-.04,26.8-.06.55,0,1.11,0,1.86,0Z"/>
      <path d="m43.21,58.18c-1.4.37-40.44.54-43.21.2V.1C14.17-.04,28.25-.04,42.5.14c-.11,3.58-.21,7-.32,10.51-.66.03-1.16.08-1.65.08-8.63.04-17.26.07-25.89.1-.3,0-.61,0-.91,0-.48,0-.76.26-.8.74-.04.51-.07,1.01-.07,1.52,0,10.86.01,21.72.02,32.59,0,.15,0,.3,0,.46.05,1.6.15,1.72,1.78,1.72,8.93,0,17.87-.03,26.8-.04.55,0,1.09,0,1.74,0v10.38Z"/>
      <path d="m286.79,21.27c-.46,12.19-.13,24.39-.38,36.69h-11.62c-.43-1.32-.59-53.72-.2-57.66.36-.04.74-.13,1.13-.13,2.94-.05,5.89-.02,8.83-.15,1.16-.05,1.79.48,2.36,1.32,1.88,2.77,3.78,5.53,5.64,8.31,8.22,12.26,16.45,24.52,24.65,36.81,2.28,3.42,4.44,6.92,6.64,10.38.21.33.35.71.61,1.24-.45.02-.77.05-1.09.05-3.3-.05-6.6-.2-9.89-.1-1.49.04-2.39-.51-3.12-1.66-1.33-2.1-2.68-4.19-4.05-6.26-5.43-8.21-10.88-16.41-16.31-24.62-.59-.89-1.1-1.82-1.67-2.72-.35-.55-.74-1.07-1.11-1.6-.13.04-.26.08-.39.12Z"/>
      <path d="m89.63,46.68c-.09,3.99-.18,7.77-.27,11.54-1.22.38-34.31.5-36.46.14V.43c1.27-.42,11.09-.42,12.92.02v46.25c.95.04,1.74.12,2.52.11,6.35-.04,12.69-.09,19.04-.13.7,0,1.39,0,2.25,0Z"/>
      <path d="m362.11,57.97h-12.63c-.04-.55-.1-.99-.1-1.44,0-11.62.01-23.25.03-34.87,0-1.27.11-2.54.14-3.8.02-.71.36-1.09,1-1.36,3.49-1.49,6.93-1.15,10.35.26.83.34,1.26,1,1.34,1.88.06.66.09,1.32.09,1.98-.02,11.83-.04,23.66-.08,35.48,0,.6-.09,1.2-.14,1.87Z"/>
      <path d="m332.77,10.94c.09-3.66.18-7.05.27-10.63,15.36-.38,30.6-.02,45.96.01v10.6c-3.8.18-7.63.02-11.46.06-3.86.04-7.72.04-11.58.04-3.81,0-7.62.02-11.42,0-3.85-.01-7.69-.05-11.76-.08Z"/>
      <path d="m324.79.2v44.78c-.31-.12-.6-.17-.8-.33-4.69-3.7-8.04-8.43-10.4-13.86-.45-1.04-.74-2.25-.75-3.39-.06-8.83-.04-17.67-.04-26.5,0-.19.06-.39.11-.7h11.88Z"/>
      <path d="m209.52,57.94h-10.94c-.06-.49-.14-.87-.14-1.26,0-7.46,0-14.91-.02-22.37,0-1.78.4-3.44,1.25-4.96,2.35-4.17,5.08-8.06,8.53-11.41.35-.34.74-.62,1.17-.97.44,1.44.55,38.61.16,40.97Z"/>
      <path d="m507.04,16.81v41.01c-1.22.33-7.99.33-10.99.01-.04-.4-.12-.84-.12-1.27-.02-7.46-.03-14.92-.04-22.38,0-1.71.38-3.34,1.23-4.81,1.98-3.43,4.11-6.77,6.84-9.68.89-.95,1.9-1.78,3.09-2.88Z"/>
      <path d="m21.16,34.39c.39-3.72.76-7.19,1.13-10.65h17.32c.04,3.63.06,7.1-.18,10.65h-18.26Z"/>
      <path d="m261.08,34.37h-18.37c.4-3.62.78-7.09,1.18-10.63h17.19v10.63Z"/>
      <path d="m117.85,34.35c.36-3.64.69-7.1,1.04-10.62h17.15c.42,1.31.32,9.22-.11,10.62h-18.08Z"/>
    </g>
  </g>
</svg>