<?xml version="1.0" encoding="UTF-8"?>
<svg id="Layer_2" data-name="Layer 2" xmlns="http://www.w3.org/2000/svg" viewBox="0 0 43.21 58.57">
  <defs>
    <style>
      .cls-1 {
        fill: #f26522;
      }
    </style>
  </defs>
  <g id="Layer_1-2" data-name="Layer 1">
    <g>
      <path class="cls-1" d="m43.21,58.18c-1.4.37-40.44.54-43.21.2V.1C14.17-.04,28.25-.04,42.5.14c-.11,3.58-.21,7-.32,10.51-.66.03-1.16.08-1.65.08-8.63.04-17.26.07-25.89.1-.3,0-.61,0-.91,0-.48,0-.76.26-.8.74-.04.51-.07,1.01-.07,1.52,0,10.86.01,21.72.02,32.59,0,.15,0,.3,0,.46.05,1.6.15,1.72,1.78,1.72,8.93,0,17.87-.03,26.8-.04.55,0,1.09,0,1.74,0v10.38Z"/>
      <path class="cls-1" d="m21.16,34.39c.39-3.72.76-7.19,1.13-10.65h17.32c.04,3.63.06,7.1-.18,10.65h-18.26Z"/>
    </g>
  </g>
</svg>